# xmcd
#
# Track frame offsets: 
#        150
#        20052
#        40782
#        60857
#        78449
#        102845
#        128100
#        148088
#        173236
#        193408
#        210800
#
# Disc length: 3120 seconds
#
# Revision: 0
# Processed by: cddbd v1.5.2PL0 Copyright (c) Steve Scherf et al.
# Submitted via: ExactAudioCopy v0.99pb4
#
DISCID=910c2e0b
DTITLE=Hermitude - Threads
DYEAR=2008
DGENRE=Hip-Hop
TTITLE0=Bloodshot
TTITLE1=Slychain
TTITLE2=44 Gallons
TTITLE3=New People
TTITLE4=The River
TTITLE5=Cartridge Kings
TTITLE6=Exhale
TTITLE7=Frayed
TTITLE8=Vector
TTITLE9=Your Call
TTITLE10=Stepping Stones
EXTD=
EXTT0=
EXTT1=
EXTT2=
EXTT3=
EXTT4=
EXTT5=
EXTT6=
EXTT7=
EXTT8=
EXTT9=
EXTT10=
PLAYORDER=
